# xmcd
#
# Track frame offsets: 
#        150
#        25130
#        44342
#        66600
#        91782
#        131857
#        157612
#        186462
#        213635
#        246860
#        272023
#
# Disc length: 3951 seconds
#
# Revision: 0
# Processed by: cddbd v1.5.2PL0 Copyright (c) Steve Scherf et al.
# Submitted via: ExactAudioCopyFreeDBPlugin 1.0
#
DISCID=9f0f6d0b
DTITLE=Johnny Kemp - Secrets Of Flying
DYEAR=1988
DGENRE=R&B
TTITLE0=Just Got Paid
TTITLE1=One Thing Led To Another
TTITLE2=My Only Want Is You
TTITLE3=Dancin' With Myself
TTITLE4=Urban Times Medley 
TTITLE5=Feeling Without Touching
TTITLE6=Just Like Flyin'
TTITLE7=Dancin' With Myself (12" Version)
TTITLE8=Dancin' With Myself (Alt Mix)
TTITLE9=Just Got Paid (Instrumental)
TTITLE10=Just Got Paid (Dub Mix)
EXTD=
EXTT0=
EXTT1=
EXTT2=
EXTT3=
EXTT4=
EXTT5=
EXTT6=
EXTT7=
EXTT8=
EXTT9=
EXTT10=
PLAYORDER=
